<svg xmlns="http://www.w3.org/2000/svg" width="1584" height="396" viewBox="0 0 1584 396">
  <defs>
    <linearGradient id="bg" x1="0" y1="0" x2="1" y2="0">
      <stop offset="0" stop-color="#03151b"/>
      <stop offset="0.55" stop-color="#071f28"/>
      <stop offset="1" stop-color="#0b2730"/>
    </linearGradient>
    <radialGradient id="vignette" cx="45%" cy="50%" r="75%">
      <stop offset="0" stop-color="#000000" stop-opacity="0"/>
      <stop offset="1" stop-color="#000000" stop-opacity="0.34"/>
    </radialGradient>
    <filter id="softShadow" x="-20%" y="-20%" width="140%" height="140%">
      <feDropShadow dx="0" dy="10" stdDeviation="18" flood-color="#000000" flood-opacity="0.28"/>
    </filter>
  </defs>

  <rect width="1584" height="396" fill="url(#bg)"/>
  <g opacity="0.32">
    <path d="M0 58H1584M0 114H1584M0 170H1584M0 226H1584M0 282H1584M0 338H1584" stroke="#ffffff" stroke-opacity="0.08" stroke-width="1"/>
    <path d="M-40 396L146 0M8 396L194 0M56 396L242 0M104 396L290 0M152 396L338 0M200 396L386 0M248 396L434 0M296 396L482 0M344 396L530 0M392 396L578 0M440 396L626 0M488 396L674 0M536 396L722 0M584 396L770 0M632 396L818 0M680 396L866 0M728 396L914 0M776 396L962 0M824 396L1010 0M872 396L1058 0M920 396L1106 0M968 396L1154 0M1016 396L1202 0M1064 396L1250 0M1112 396L1298 0M1160 396L1346 0M1208 396L1394 0M1256 396L1442 0M1304 396L1490 0M1352 396L1538 0M1400 396L1586 0" stroke="#d9a24a" stroke-opacity="0.10" stroke-width="1"/>
  </g>

  <!-- Quiet rule after profile-photo safe area -->
  <rect x="382" y="78" width="3" height="240" fill="#d9a24a" opacity="0.9"/>

  <g font-family="Avenir Next, Helvetica Neue, Arial, sans-serif">
    <text x="430" y="110" fill="#d9a24a" font-size="26" font-weight="700" letter-spacing="3.6">UPCOMING BOOK</text>
    <text x="426" y="198" fill="#f7ead2" font-size="78" font-weight="800" letter-spacing="1.2">THE DATA NARRATOR</text>
    <text x="430" y="252" fill="#d8e1df" font-size="34" font-weight="400">Turning data into decisions, stories and action</text>
    <text x="430" y="303" fill="#e8c483" font-size="25" font-weight="500" letter-spacing="0.5">Rose Attridge  |  Transformation, data governance and AI readiness</text>
  </g>

  <g transform="translate(1260 66)" filter="url(#softShadow)">
    <rect width="205" height="264" rx="2" fill="#041218" stroke="#d9a24a" stroke-opacity="0.82" stroke-width="2"/>
    <g transform="translate(102.5 106)">
      <g stroke-linecap="round">
        <line x1="0" y1="-35" x2="0" y2="-86" stroke="#d9a24a" stroke-opacity="0.68" stroke-width="2"/>
        <line x1="6.1" y1="-34.5" x2="12.1" y2="-68.9" stroke="#d9a24a" stroke-opacity="0.32"/>
        <line x1="12" y1="-32.9" x2="24" y2="-65.8" stroke="#d9a24a" stroke-opacity="0.32"/>
        <line x1="17.5" y1="-30.3" x2="43" y2="-74.5" stroke="#d9a24a" stroke-opacity="0.68" stroke-width="2"/>
        <line x1="22.5" y1="-26.8" x2="45" y2="-53.6" stroke="#d9a24a" stroke-opacity="0.32"/>
        <line x1="26.8" y1="-22.5" x2="53.6" y2="-45" stroke="#d9a24a" stroke-opacity="0.32"/>
        <line x1="30.3" y1="-17.5" x2="74.5" y2="-43" stroke="#d9a24a" stroke-opacity="0.68" stroke-width="2"/>
        <line x1="32.9" y1="-12" x2="65.8" y2="-24" stroke="#d9a24a" stroke-opacity="0.32"/>
        <line x1="34.5" y1="-6.1" x2="68.9" y2="-12.1" stroke="#d9a24a" stroke-opacity="0.32"/>
        <line x1="35" y1="0" x2="86" y2="0" stroke="#d9a24a" stroke-opacity="0.68" stroke-width="2"/>
        <line x1="34.5" y1="6.1" x2="68.9" y2="12.1" stroke="#d9a24a" stroke-opacity="0.32"/>
        <line x1="32.9" y1="12" x2="65.8" y2="24" stroke="#d9a24a" stroke-opacity="0.32"/>
        <line x1="30.3" y1="17.5" x2="74.5" y2="43" stroke="#d9a24a" stroke-opacity="0.68" stroke-width="2"/>
        <line x1="26.8" y1="22.5" x2="53.6" y2="45" stroke="#d9a24a" stroke-opacity="0.32"/>
        <line x1="22.5" y1="26.8" x2="45" y2="53.6" stroke="#d9a24a" stroke-opacity="0.32"/>
        <line x1="17.5" y1="30.3" x2="43" y2="74.5" stroke="#d9a24a" stroke-opacity="0.68" stroke-width="2"/>
        <line x1="12" y1="32.9" x2="24" y2="65.8" stroke="#d9a24a" stroke-opacity="0.32"/>
        <line x1="6.1" y1="34.5" x2="12.1" y2="68.9" stroke="#d9a24a" stroke-opacity="0.32"/>
        <line x1="0" y1="35" x2="0" y2="86" stroke="#d9a24a" stroke-opacity="0.68" stroke-width="2"/>
        <line x1="-6.1" y1="34.5" x2="-12.1" y2="68.9" stroke="#d9a24a" stroke-opacity="0.32"/>
        <line x1="-12" y1="32.9" x2="-24" y2="65.8" stroke="#d9a24a" stroke-opacity="0.32"/>
        <line x1="-17.5" y1="30.3" x2="-43" y2="74.5" stroke="#d9a24a" stroke-opacity="0.68" stroke-width="2"/>
        <line x1="-22.5" y1="26.8" x2="-45" y2="53.6" stroke="#d9a24a" stroke-opacity="0.32"/>
        <line x1="-26.8" y1="22.5" x2="-53.6" y2="45" stroke="#d9a24a" stroke-opacity="0.32"/>
        <line x1="-30.3" y1="17.5" x2="-74.5" y2="43" stroke="#d9a24a" stroke-opacity="0.68" stroke-width="2"/>
        <line x1="-32.9" y1="12" x2="-65.8" y2="24" stroke="#d9a24a" stroke-opacity="0.32"/>
        <line x1="-34.5" y1="6.1" x2="-68.9" y2="12.1" stroke="#d9a24a" stroke-opacity="0.32"/>
        <line x1="-35" y1="0" x2="-86" y2="0" stroke="#d9a24a" stroke-opacity="0.68" stroke-width="2"/>
        <line x1="-34.5" y1="-6.1" x2="-68.9" y2="-12.1" stroke="#d9a24a" stroke-opacity="0.32"/>
        <line x1="-32.9" y1="-12" x2="-65.8" y2="-24" stroke="#d9a24a" stroke-opacity="0.32"/>
        <line x1="-30.3" y1="-17.5" x2="-74.5" y2="-43" stroke="#d9a24a" stroke-opacity="0.68" stroke-width="2"/>
        <line x1="-26.8" y1="-22.5" x2="-53.6" y2="-45" stroke="#d9a24a" stroke-opacity="0.32"/>
        <line x1="-22.5" y1="-26.8" x2="-45" y2="-53.6" stroke="#d9a24a" stroke-opacity="0.32"/>
        <line x1="-17.5" y1="-30.3" x2="-43" y2="-74.5" stroke="#d9a24a" stroke-opacity="0.68" stroke-width="2"/>
        <line x1="-12" y1="-32.9" x2="-24" y2="-65.8" stroke="#d9a24a" stroke-opacity="0.32"/>
        <line x1="-6.1" y1="-34.5" x2="-12.1" y2="-68.9" stroke="#d9a24a" stroke-opacity="0.32"/>
      </g>
      <circle r="47" fill="#d9a24a" opacity="0.18"/>
      <circle r="34" fill="none" stroke="#f0b451" stroke-width="9"/>
      <circle r="5" fill="#f7ead2" opacity="0.85"/>
    </g>
    <g font-family="Avenir Next, Helvetica Neue, Arial, sans-serif" text-anchor="middle">
      <text x="102.5" y="202" fill="#f7ead2" font-size="18" font-weight="800" letter-spacing="0.4">THE DATA NARRATOR</text>
      <text x="102.5" y="234" fill="#d9a24a" font-size="11" font-weight="700" letter-spacing="1.3">ROSE ATTRIDGE</text>
    </g>
  </g>

  <rect width="1584" height="396" fill="url(#vignette)"/>
</svg>
